{
    "asset" : {
        "generator" : "Khronos glTF Blender I/O v1.8.19",
        "version" : "2.0"
    },
    "extensionsUsed" : [
        "KHR_texture_transform",
        "KHR_materials_clearcoat"
    ],
    "extensionsRequired" : [
        "KHR_texture_transform"
    ],
    "scene" : 0,
    "scenes" : [
        {
            "name" : "Scene",
            "nodes" : [
                0,
                1,
                2,
                3,
                4,
                6
            ]
        }
    ],
    "nodes" : [
        {
            "mesh" : 0,
            "name" : "Cup"
        },
        {
            "mesh" : 1,
            "name" : "Desk"
        },
        {
            "mesh" : 2,
            "name" : "Resume0"
        },
        {
            "mesh" : 3,
            "name" : "Resume1"
        },
        {
            "mesh" : 4,
            "name" : "Wall"
        },
        {
            "mesh" : 5,
            "name" : "Lid",
            "rotation" : [
                -0.7660444378852844,
                0,
                0,
                0.6427875757217407
            ],
            "translation" : [
                0,
                0.004139423370361328,
                -0.10729999840259552
            ]
        },
        {
            "children" : [
                5
            ],
            "mesh" : 6,
            "name" : "Laptop",
            "rotation" : [
                0,
                0.17117911577224731,
                0,
                0.9852399230003357
            ],
            "translation" : [
                -0.2997353672981262,
                0.7458239793777466,
                -0.05877164378762245
            ]
        }
    ],
    "materials" : [
        {
            "name" : "Cup",
            "normalTexture" : {
                "index" : 0
            },
            "pbrMetallicRoughness" : {
                "baseColorTexture" : {
                    "index" : 1
                },
                "metallicFactor" : 0,
                "metallicRoughnessTexture" : {
                    "index" : 2
                }
            }
        },
        {
            "name" : "Desk",
            "normalTexture" : {
                "index" : 3
            },
            "pbrMetallicRoughness" : {
                "baseColorTexture" : {
                    "index" : 4
                },
                "metallicFactor" : 0,
                "metallicRoughnessTexture" : {
                    "index" : 5
                }
            }
        },
        {
            "doubleSided" : true,
            "name" : "Resume0",
            "pbrMetallicRoughness" : {
                "baseColorTexture" : {
                    "index" : 6
                },
                "metallicFactor" : 0,
                "metallicRoughnessTexture" : {
                    "index" : 7
                }
            }
        },
        {
            "doubleSided" : true,
            "name" : "Resume1",
            "pbrMetallicRoughness" : {
                "baseColorTexture" : {
                    "index" : 8
                },
                "metallicFactor" : 0,
                "metallicRoughnessTexture" : {
                    "index" : 9
                }
            }
        },
        {
            "doubleSided" : true,
            "name" : "Plaster001",
            "normalTexture" : {
                "extensions" : {
                    "KHR_texture_transform" : {
                        "offset" : [
                            0,
                            -4
                        ],
                        "scale" : [
                            5,
                            5
                        ]
                    }
                },
                "index" : 10
            },
            "pbrMetallicRoughness" : {
                "baseColorTexture" : {
                    "extensions" : {
                        "KHR_texture_transform" : {
                            "offset" : [
                                0,
                                -4
                            ],
                            "scale" : [
                                5,
                                5
                            ]
                        }
                    },
                    "index" : 11
                },
                "metallicFactor" : 0,
                "metallicRoughnessTexture" : {
                    "extensions" : {
                        "KHR_texture_transform" : {
                            "offset" : [
                                0,
                                -4
                            ],
                            "scale" : [
                                5,
                                5
                            ]
                        }
                    },
                    "index" : 12
                }
            }
        },
        {
            "doubleSided" : true,
            "name" : "Lid",
            "normalTexture" : {
                "index" : 13
            },
            "pbrMetallicRoughness" : {
                "baseColorTexture" : {
                    "index" : 14
                },
                "metallicFactor" : 0,
                "metallicRoughnessTexture" : {
                    "index" : 15
                }
            }
        },
        {
            "doubleSided" : true,
            "emissiveFactor" : [
                1,
                1,
                1
            ],
            "emissiveTexture" : {
                "index" : 16
            },
            "extensions" : {
                "KHR_materials_clearcoat" : {
                    "clearcoatFactor" : 0.5,
                    "clearcoatRoughnessFactor" : 0.5
                }
            },
            "name" : "Screen",
            "pbrMetallicRoughness" : {
                "baseColorTexture" : {
                    "index" : 17
                },
                "metallicFactor" : 0,
                "roughnessFactor" : 0.5
            }
        },
        {
            "doubleSided" : true,
            "name" : "BakedLaptopBottom",
            "normalTexture" : {
                "index" : 18
            },
            "pbrMetallicRoughness" : {
                "baseColorTexture" : {
                    "index" : 19
                },
                "metallicFactor" : 0,
                "metallicRoughnessTexture" : {
                    "index" : 20
                }
            }
        }
    ],
    "meshes" : [
        {
            "name" : "Cylinder",
            "primitives" : [
                {
                    "attributes" : {
                        "POSITION" : 0,
                        "NORMAL" : 1,
                        "TEXCOORD_0" : 2
                    },
                    "indices" : 3,
                    "material" : 0
                }
            ]
        },
        {
            "name" : "Cube.001",
            "primitives" : [
                {
                    "attributes" : {
                        "POSITION" : 4,
                        "NORMAL" : 5,
                        "TEXCOORD_0" : 6
                    },
                    "indices" : 7,
                    "material" : 1
                }
            ]
        },
        {
            "name" : "Plane",
            "primitives" : [
                {
                    "attributes" : {
                        "POSITION" : 8,
                        "NORMAL" : 9,
                        "TEXCOORD_0" : 10
                    },
                    "indices" : 11,
                    "material" : 2
                }
            ]
        },
        {
            "name" : "Plane.001",
            "primitives" : [
                {
                    "attributes" : {
                        "POSITION" : 12,
                        "NORMAL" : 13,
                        "TEXCOORD_0" : 14
                    },
                    "indices" : 15,
                    "material" : 3
                }
            ]
        },
        {
            "name" : "Plane.002",
            "primitives" : [
                {
                    "attributes" : {
                        "POSITION" : 16,
                        "NORMAL" : 17,
                        "TEXCOORD_0" : 18
                    },
                    "indices" : 11,
                    "material" : 4
                }
            ]
        },
        {
            "name" : "Cube.002",
            "primitives" : [
                {
                    "attributes" : {
                        "POSITION" : 19,
                        "NORMAL" : 20,
                        "TEXCOORD_0" : 21
                    },
                    "indices" : 22,
                    "material" : 5
                },
                {
                    "attributes" : {
                        "POSITION" : 23,
                        "NORMAL" : 24,
                        "TEXCOORD_0" : 25
                    },
                    "indices" : 26,
                    "material" : 6
                }
            ]
        },
        {
            "name" : "Cube",
            "primitives" : [
                {
                    "attributes" : {
                        "POSITION" : 27,
                        "NORMAL" : 28,
                        "TEXCOORD_0" : 29
                    },
                    "indices" : 30,
                    "material" : 7
                }
            ]
        }
    ],
    "textures" : [
        {
            "sampler" : 0,
            "source" : 0
        },
        {
            "sampler" : 0,
            "source" : 1
        },
        {
            "sampler" : 0,
            "source" : 2
        },
        {
            "sampler" : 0,
            "source" : 3
        },
        {
            "sampler" : 0,
            "source" : 4
        },
        {
            "sampler" : 0,
            "source" : 5
        },
        {
            "sampler" : 0,
            "source" : 6
        },
        {
            "sampler" : 0,
            "source" : 7
        },
        {
            "sampler" : 0,
            "source" : 8
        },
        {
            "sampler" : 0,
            "source" : 9
        },
        {
            "sampler" : 0,
            "source" : 10
        },
        {
            "sampler" : 0,
            "source" : 11
        },
        {
            "sampler" : 0,
            "source" : 12
        },
        {
            "sampler" : 0,
            "source" : 13
        },
        {
            "sampler" : 0,
            "source" : 14
        },
        {
            "sampler" : 0,
            "source" : 15
        },
        {
            "sampler" : 0,
            "source" : 16
        },
        {
            "sampler" : 0,
            "source" : 16
        },
        {
            "sampler" : 0,
            "source" : 17
        },
        {
            "sampler" : 0,
            "source" : 18
        },
        {
            "sampler" : 0,
            "source" : 19
        }
    ],
    "images" : [
        {
            "mimeType" : "image/png",
            "name" : "CupNormal",
            "uri" : "textures/CupNormal.png"
        },
        {
            "mimeType" : "image/png",
            "name" : "Cup",
            "uri" : "textures/Cup.png"
        },
        {
            "mimeType" : "image/png",
            "name" : "CupRuff",
            "uri" : "textures/CupRuff.png"
        },
        {
            "mimeType" : "image/png",
            "name" : "BakedDeskNormal",
            "uri" : "textures/BakedDeskNormal.png"
        },
        {
            "mimeType" : "image/jpeg",
            "name" : "wood_table_001_diff_1k",
            "uri" : "textures/wood_table_001_diff_1k.jpg"
        },
        {
            "mimeType" : "image/png",
            "name" : "wood_table_001_rough_1k",
            "uri" : "textures/wood_table_001_rough_1k.png"
        },
        {
            "mimeType" : "image/png",
            "name" : "446c075a5e314cd0cf2b243e744c3af0EcNkCflaNHjrCiWb-0.png",
            "uri" : "textures/446c075a5e314cd0cf2b243e744c3af0EcNkCflaNHjrCiWb-0_png.png"
        },
        {
            "mimeType" : "image/png",
            "name" : "BakedResume0Ruff",
            "uri" : "textures/BakedResume0Ruff.png"
        },
        {
            "mimeType" : "image/png",
            "name" : "446c075a5e314cd0cf2b243e744c3af0EcNkCflaNHjrCiWb-1.png",
            "uri" : "textures/446c075a5e314cd0cf2b243e744c3af0EcNkCflaNHjrCiWb-1_png.png"
        },
        {
            "mimeType" : "image/png",
            "name" : "BakedResume1Ruff",
            "uri" : "textures/BakedResume1Ruff.png"
        },
        {
            "mimeType" : "image/png",
            "name" : "BakedWallNormal",
            "uri" : "textures/BakedWallNormal.png"
        },
        {
            "mimeType" : "image/png",
            "name" : "Plaster001_1K_Color",
            "uri" : "textures/Plaster001_1K_Color.png"
        },
        {
            "mimeType" : "image/png",
            "name" : "Plaster001_1K_Roughness",
            "uri" : "textures/Plaster001_1K_Roughness.png"
        },
        {
            "mimeType" : "image/png",
            "name" : "BakedLidNormal",
            "uri" : "textures/BakedLidNormal.png"
        },
        {
            "mimeType" : "image/png",
            "name" : "Plastic011_1K_Color",
            "uri" : "textures/Plastic011_1K_Color.png"
        },
        {
            "mimeType" : "image/png",
            "name" : "Plastic011_1K_Roughness",
            "uri" : "textures/Plastic011_1K_Roughness.png"
        },
        {
            "mimeType" : "image/png",
            "name" : "Screen",
            "uri" : "textures/Screen.png"
        },
        {
            "mimeType" : "image/png",
            "name" : "BakedLaptopBottomNormal",
            "uri" : "textures/BakedLaptopBottomNormal.png"
        },
        {
            "mimeType" : "image/png",
            "name" : "BakedLaptopBottomColor",
            "uri" : "textures/BakedLaptopBottomColor.png"
        },
        {
            "mimeType" : "image/png",
            "name" : "BakedLaptopBottomRuff",
            "uri" : "textures/BakedLaptopBottomRuff.png"
        }
    ],
    "accessors" : [
        {
            "bufferView" : 0,
            "componentType" : 5126,
            "count" : 1129,
            "max" : [
                0.38615620136260986,
                0.8320715427398682,
                -0.03280673921108246
            ],
            "min" : [
                0.28018859028816223,
                0.7373542189598083,
                -0.11209797859191895
            ],
            "type" : "VEC3"
        },
        {
            "bufferView" : 1,
            "componentType" : 5126,
            "count" : 1129,
            "type" : "VEC3"
        },
        {
            "bufferView" : 2,
            "componentType" : 5126,
            "count" : 1129,
            "type" : "VEC2"
        },
        {
            "bufferView" : 3,
            "componentType" : 5123,
            "count" : 4860,
            "type" : "SCALAR"
        },
        {
            "bufferView" : 4,
            "componentType" : 5126,
            "count" : 527,
            "max" : [
                0.597000002861023,
                0.7369999885559082,
                0.33000001311302185
            ],
            "min" : [
                -0.597000002861023,
                0,
                -0.33000001311302185
            ],
            "type" : "VEC3"
        },
        {
            "bufferView" : 5,
            "componentType" : 5126,
            "count" : 527,
            "type" : "VEC3"
        },
        {
            "bufferView" : 6,
            "componentType" : 5126,
            "count" : 527,
            "type" : "VEC2"
        },
        {
            "bufferView" : 7,
            "componentType" : 5123,
            "count" : 594,
            "type" : "SCALAR"
        },
        {
            "bufferView" : 8,
            "componentType" : 5126,
            "count" : 6,
            "max" : [
                0.10159999877214432,
                0.7376824617385864,
                0.2307734191417694
            ],
            "min" : [
                -0.10159999877214432,
                0.7376824617385864,
                -0.04862656444311142
            ],
            "type" : "VEC3"
        },
        {
            "bufferView" : 9,
            "componentType" : 5126,
            "count" : 6,
            "type" : "VEC3"
        },
        {
            "bufferView" : 10,
            "componentType" : 5126,
            "count" : 6,
            "type" : "VEC2"
        },
        {
            "bufferView" : 11,
            "componentType" : 5123,
            "count" : 6,
            "type" : "SCALAR"
        },
        {
            "bufferView" : 12,
            "componentType" : 5126,
            "count" : 6,
            "max" : [
                0.15904837846755981,
                0.7373231649398804,
                0.22166132926940918
            ],
            "min" : [
                -0.05623989179730415,
                0.7373231649398804,
                -0.06640283018350601
            ],
            "type" : "VEC3"
        },
        {
            "bufferView" : 13,
            "componentType" : 5126,
            "count" : 6,
            "type" : "VEC3"
        },
        {
            "bufferView" : 14,
            "componentType" : 5126,
            "count" : 6,
            "type" : "VEC2"
        },
        {
            "bufferView" : 15,
            "componentType" : 5123,
            "count" : 6,
            "type" : "SCALAR"
        },
        {
            "bufferView" : 16,
            "componentType" : 5126,
            "count" : 6,
            "max" : [
                2.5,
                5,
                -0.3431040644645691
            ],
            "min" : [
                -2.5,
                0,
                -0.3431044816970825
            ],
            "type" : "VEC3"
        },
        {
            "bufferView" : 17,
            "componentType" : 5126,
            "count" : 6,
            "type" : "VEC3"
        },
        {
            "bufferView" : 18,
            "componentType" : 5126,
            "count" : 6,
            "type" : "VEC2"
        },
        {
            "bufferView" : 19,
            "componentType" : 5126,
            "count" : 149,
            "max" : [
                0.16124999523162842,
                0.00341276777908206,
                0.21470001339912415
            ],
            "min" : [
                -0.16124999523162842,
                -4.656612873077393e-10,
                -0.00010000914335250854
            ],
            "type" : "VEC3"
        },
        {
            "bufferView" : 20,
            "componentType" : 5126,
            "count" : 149,
            "type" : "VEC3"
        },
        {
            "bufferView" : 21,
            "componentType" : 5126,
            "count" : 149,
            "type" : "VEC2"
        },
        {
            "bufferView" : 22,
            "componentType" : 5123,
            "count" : 456,
            "type" : "SCALAR"
        },
        {
            "bufferView" : 23,
            "componentType" : 5126,
            "count" : 85,
            "max" : [
                0.15571188926696777,
                1.3555080662619757e-17,
                0.21019141376018524
            ],
            "min" : [
                -0.15571188926696777,
                -4.596445724036613e-10,
                0.03087145835161209
            ],
            "type" : "VEC3"
        },
        {
            "bufferView" : 24,
            "componentType" : 5126,
            "count" : 85,
            "type" : "VEC3"
        },
        {
            "bufferView" : 25,
            "componentType" : 5126,
            "count" : 85,
            "type" : "VEC2"
        },
        {
            "bufferView" : 26,
            "componentType" : 5123,
            "count" : 96,
            "type" : "SCALAR"
        },
        {
            "bufferView" : 27,
            "componentType" : 5126,
            "count" : 139,
            "max" : [
                0.16124999523162842,
                0.004139423370361328,
                0.10740000754594803
            ],
            "min" : [
                -0.16124999523162842,
                -0.007914846763014793,
                -0.10740000754594803
            ],
            "type" : "VEC3"
        },
        {
            "bufferView" : 28,
            "componentType" : 5126,
            "count" : 139,
            "type" : "VEC3"
        },
        {
            "bufferView" : 29,
            "componentType" : 5126,
            "count" : 139,
            "type" : "VEC2"
        },
        {
            "bufferView" : 30,
            "componentType" : 5123,
            "count" : 474,
            "type" : "SCALAR"
        }
    ],
    "bufferViews" : [
        {
            "buffer" : 0,
            "byteLength" : 13548,
            "byteOffset" : 0
        },
        {
            "buffer" : 0,
            "byteLength" : 13548,
            "byteOffset" : 13548
        },
        {
            "buffer" : 0,
            "byteLength" : 9032,
            "byteOffset" : 27096
        },
        {
            "buffer" : 0,
            "byteLength" : 9720,
            "byteOffset" : 36128
        },
        {
            "buffer" : 0,
            "byteLength" : 6324,
            "byteOffset" : 45848
        },
        {
            "buffer" : 0,
            "byteLength" : 6324,
            "byteOffset" : 52172
        },
        {
            "buffer" : 0,
            "byteLength" : 4216,
            "byteOffset" : 58496
        },
        {
            "buffer" : 0,
            "byteLength" : 1188,
            "byteOffset" : 62712
        },
        {
            "buffer" : 0,
            "byteLength" : 72,
            "byteOffset" : 63900
        },
        {
            "buffer" : 0,
            "byteLength" : 72,
            "byteOffset" : 63972
        },
        {
            "buffer" : 0,
            "byteLength" : 48,
            "byteOffset" : 64044
        },
        {
            "buffer" : 0,
            "byteLength" : 12,
            "byteOffset" : 64092
        },
        {
            "buffer" : 0,
            "byteLength" : 72,
            "byteOffset" : 64104
        },
        {
            "buffer" : 0,
            "byteLength" : 72,
            "byteOffset" : 64176
        },
        {
            "buffer" : 0,
            "byteLength" : 48,
            "byteOffset" : 64248
        },
        {
            "buffer" : 0,
            "byteLength" : 12,
            "byteOffset" : 64296
        },
        {
            "buffer" : 0,
            "byteLength" : 72,
            "byteOffset" : 64308
        },
        {
            "buffer" : 0,
            "byteLength" : 72,
            "byteOffset" : 64380
        },
        {
            "buffer" : 0,
            "byteLength" : 48,
            "byteOffset" : 64452
        },
        {
            "buffer" : 0,
            "byteLength" : 1788,
            "byteOffset" : 64500
        },
        {
            "buffer" : 0,
            "byteLength" : 1788,
            "byteOffset" : 66288
        },
        {
            "buffer" : 0,
            "byteLength" : 1192,
            "byteOffset" : 68076
        },
        {
            "buffer" : 0,
            "byteLength" : 912,
            "byteOffset" : 69268
        },
        {
            "buffer" : 0,
            "byteLength" : 1020,
            "byteOffset" : 70180
        },
        {
            "buffer" : 0,
            "byteLength" : 1020,
            "byteOffset" : 71200
        },
        {
            "buffer" : 0,
            "byteLength" : 680,
            "byteOffset" : 72220
        },
        {
            "buffer" : 0,
            "byteLength" : 192,
            "byteOffset" : 72900
        },
        {
            "buffer" : 0,
            "byteLength" : 1668,
            "byteOffset" : 73092
        },
        {
            "buffer" : 0,
            "byteLength" : 1668,
            "byteOffset" : 74760
        },
        {
            "buffer" : 0,
            "byteLength" : 1112,
            "byteOffset" : 76428
        },
        {
            "buffer" : 0,
            "byteLength" : 948,
            "byteOffset" : 77540
        }
    ],
    "samplers" : [
        {
            "magFilter" : 9729,
            "minFilter" : 9987
        }
    ],
    "buffers" : [
        {
            "byteLength" : 78488,
            "uri" : "Resume Office.bin"
        }
    ]
}
